<svg id="Layer_1" xmlns="http://www.w3.org/2000/svg" width="150" height="24" viewBox="0 0 150 24"><g fill="#333"><path d="M51.7 17.5l.6-.7c1.3 1.2 2.5 1.8 4.2 1.8 1.8 0 3-1 3-2.3 0-1.3-.7-2-3.3-2.5-2.8-.6-4-1.5-4-3.3 0-1.8 1.6-3.1 3.8-3.1 1.7 0 2.9.5 4.1 1.4l-.6.7c-1.1-1-2.2-1.3-3.5-1.3-1.7 0-2.9 1-2.9 2.2 0 1.3.6 2 3.4 2.6 2.7.6 3.9 1.5 3.9 3.3 0 1.9-1.6 3.2-3.9 3.2-1.9-.1-3.4-.7-4.8-2zM63.3 7.4h.9v7.8l7.5-7.8h1.2l-5.2 5.2 5.4 6.6H72l-4.9-6-2.9 3v3h-.9V7.4zM75.5 7.4h.9v11.8h-.9V7.4zM79.5 13.4c0-3.3 2.4-6.1 6-6.1s5.9 2.9 5.9 6.1c0 3.2-2.4 6.1-6 6.1s-5.9-2.9-5.9-6.1zm11 0c0-3-2.1-5.4-5.1-5.4-2.9 0-5 2.4-5 5.3s2.1 5.3 5.1 5.3c2.9.1 5-2.3 5-5.2zM95.4 7.4h2.2l3.6 5.6 3.6-5.6h2.2v11.8h-2.1v-8.5l-3.7 5.6h-.1l-3.7-5.5v8.4h-2V7.4zM109.9 14.2V7.4h2.1v6.7c0 2.2 1.1 3.4 3 3.4 1.8 0 3-1.1 3-3.3V7.4h2.1v6.7c0 3.5-2 5.3-5.1 5.3-3.2.1-5.1-1.7-5.1-5.2zM122 17.5l1.2-1.5c1.1 1 2.3 1.5 3.7 1.5 1.3 0 2.1-.6 2.1-1.5 0-.8-.5-1.3-2.7-1.8-2.5-.6-3.9-1.4-3.9-3.5 0-2 1.7-3.4 4-3.4 1.7 0 3.1.5 4.3 1.5l-1.1 1.6c-1.1-.8-2.1-1.2-3.2-1.2-1.2 0-1.9.6-1.9 1.4 0 .9.5 1.3 2.8 1.9 2.5.6 3.8 1.5 3.8 3.5 0 2.2-1.7 3.5-4.2 3.5-1.7-.1-3.4-.7-4.9-2zM133.8 7.4h2.1v11.8h-2.1V7.4zM138.5 13.4c0-3.4 2.5-6.1 6.1-6.1 2.2 0 3.5.8 4.6 1.8l-1.3 1.5c-.9-.9-2-1.5-3.3-1.5-2.2 0-3.9 1.9-3.9 4.2 0 2.3 1.6 4.2 3.9 4.2 1.5 0 2.4-.6 3.4-1.5l1.3 1.4c-1.2 1.3-2.6 2.1-4.8 2.1-3.5 0-6-2.7-6-6.1z"/></g><path fill="#333" d="M34 0c-4.9-.4-9.3 2.2-11.5 6.2l-5.2 9.1-3.1-1.6-2.8 4.9c-3.7-.3-6.4-3.5-6.1-7.2.3-3.7 3.5-6.4 7.2-6.1 1.9.2 3.5 1.1 4.7 2.5L19.9 3C18 1.3 15.6.3 13 0 6.4-.5.6 4.4 0 11c-.5 6.6 4.4 12.4 11 13 4.9.4 9.3-2.2 11.5-6.2l5.2-9.1 3.1 1.6 2.8-4.9c3.7.3 6.4 3.5 6.1 7.2-.3 3.7-3.5 6.4-7.2 6.1-1.9-.2-3.5-1.1-4.6-2.5L25.1 21c1.9 1.6 4.3 2.7 6.9 2.9 6.6.5 12.4-4.4 12.9-11C45.5 6.4 40.6.6 34 0"/></svg>